<?xml version="1.0"?>
<svg version="1.1" xmlns="http://www.w3.org/2000/svg" width="236" height="40" style=""><path fill="#521e0b" d="M15.09,22.61l0-1.44l4.806-0.09l0,1.53l-1.008,0.18l1.602,5.04l1.53-4.986l-1.044-0.234l0-1.44l4.842-0.09l0,1.53l-1.116,0.234l-2.646,7.38c-0.864,2.376-2.034,4.896-4.896,4.896c-0.612,0-1.746-0.144-1.746-0.144l0.252-1.926l1.17,0c1.44,0,2.106-1.53,2.412-2.232l-3.204-7.92z M32.55918,20.9c2.916,0,4.536,1.764,4.536,4.86c0,3.24-1.89,5.22-4.806,5.22c-2.934,0-4.59-1.53-4.59-4.95c0-3.24,1.926-5.13,4.86-5.13z M32.46918,23.06c-1.314,0-1.98,0.72-1.98,2.88c0,1.98,0.576,2.88,1.89,2.88c1.296,0,1.926-0.81,1.926-2.97c0-1.836-0.54-2.79-1.836-2.79z M43.47636,16.85l0,5.274c0.522-0.432,1.692-1.224,3.024-1.224c1.836,0,2.826,1.224,2.826,3.24l0,4.77l1.26,0.45l0,1.44l-4.896,0l0-1.44l0.936-0.432l0-4.356c0-0.9-0.36-1.44-1.188-1.44c-1.008,0-1.962,0.954-1.962,0.954l0,4.824l0.954,0.45l0,1.44l-5.094,0l0-1.44l1.44-0.45l0-10.116l-1.44-0.36l0-1.44z M59.05554,30.8l-0.324-1.17s-1.386,1.35-2.916,1.35c-1.746,0-2.808-1.026-2.808-2.826c0-2.124,1.602-2.97,4.338-2.97l1.26,0l0-0.99c0-0.918-0.486-1.314-1.386-1.314c-0.918,0-1.584,0.27-1.584,0.27l-0.27,1.134l-1.62,0l-0.126-2.664s2.178-0.72,3.906-0.72c2.736,0,3.78,0.954,3.78,3.564l0,4.446l1.35,0.324l0,1.44z M58.60554,26.714l-1.026,0c-1.404,0-1.962,0.36-1.962,1.17c0,0.684,0.378,1.08,1.062,1.08c0.954,0,1.926-1.044,1.926-1.044l0-1.206z M68.80272,21.08l0.126,1.242s1.71-1.386,3.312-1.386c1.746,0,2.736,1.242,2.736,3.204l0,4.77l1.26,0.45l0,1.44l-4.95,0l0-1.44l0.99-0.45l0-4.284c0-0.828-0.468-1.44-1.224-1.44c-1.116,0-1.926,1.026-1.926,1.026l0,4.698l0.99,0.45l0,1.44l-5.13,0l0-1.44l1.44-0.45l0-5.85l-1.44-0.45l0-1.44z M82.3839,21.08l0.126,1.242s1.71-1.386,3.312-1.386c1.746,0,2.736,1.242,2.736,3.204l0,4.77l1.26,0.45l0,1.44l-4.95,0l0-1.44l0.99-0.45l0-4.284c0-0.828-0.468-1.44-1.224-1.44c-1.116,0-1.926,1.026-1.926,1.026l0,4.698l0.99,0.45l0,1.44l-5.13,0l0-1.44l1.44-0.45l0-5.85l-1.44-0.45l0-1.44z M100.93308,26.534l-5.976,0c0.108,1.44,0.936,2.286,2.178,2.286c1.494,0,3.024-0.846,3.024-0.846l0.774,1.494s-1.8,1.512-4.104,1.512c-3.096,0-4.68-1.8-4.68-4.86c0-3.15,1.782-5.22,4.806-5.22c2.682,0,4.086,1.656,4.086,4.23c0,0.684-0.108,1.35-0.108,1.404z M94.99308,24.86l3.258,0c0-1.026-0.432-1.8-1.476-1.8c-1.008,0-1.638,0.738-1.782,1.8z M105.22626,27.65l0.144,1.17s0.63,0.18,1.512,0.18c0.99,0,1.476-0.306,1.476-0.882c0-1.476-4.806-0.936-4.806-4.14c0-2.25,1.8-3.078,3.708-3.078c1.62,0,3.348,0.54,3.348,0.54l-0.072,2.7l-1.53,0l-0.27-1.08s-0.522-0.18-1.242-0.18c-0.774,0-1.242,0.324-1.242,0.918c0,1.458,4.806,0.828,4.806,3.942c0,2.07-1.674,3.24-4.14,3.24c-1.71,0-3.312-0.396-3.312-0.396l0-2.934l1.62,0z M123.19062,18.11l1.89,0c2.34,0,3.96,0.99,3.96,3.114c0,1.566-0.738,2.52-2.16,2.97c1.692,0.486,2.574,1.494,2.574,2.88c0,2.646-1.764,3.726-4.68,3.726l-5.724,0l0-1.53l1.35-0.54l0-8.46l-1.35-0.54l0-1.53z M123.19062,23.294l1.044,0c1.314,0,2.016-0.558,2.016-1.674c0-0.936-0.666-1.35-1.53-1.35l-1.53,0l0,3.024z M123.19062,28.64l1.494,0c1.26,0,1.926-0.576,1.926-1.566c0-1.314-0.756-1.89-2.376-1.89l-1.044,0l0,3.456z M140.9298,26.534l-5.976,0c0.108,1.44,0.936,2.286,2.178,2.286c1.494,0,3.024-0.846,3.024-0.846l0.774,1.494s-1.8,1.512-4.104,1.512c-3.096,0-4.68-1.8-4.68-4.86c0-3.15,1.782-5.22,4.806-5.22c2.682,0,4.086,1.656,4.086,4.23c0,0.684-0.108,1.35-0.108,1.404z M134.9898,24.86l3.258,0c0-1.026-0.432-1.8-1.476-1.8c-1.008,0-1.638,0.738-1.782,1.8z M147.41898,24.698l1.188,0l1.224-1.836l-0.792-0.252l0-1.44l4.644-0.09l0,1.53l-1.26,0.234l-1.674,2.358l2.016,3.726l1.368,0.432l0,1.44l-3.33,0l-2.232-4.392l-1.152,0l0,2.502l0.99,0.45l0,1.44l-5.13,0l0-1.44l1.44-0.45l0-10.116l-1.44-0.36l0-1.44l4.14-0.144l0,7.848z M164.97816,26.534l-5.976,0c0.108,1.44,0.936,2.286,2.178,2.286c1.494,0,3.024-0.846,3.024-0.846l0.774,1.494s-1.8,1.512-4.104,1.512c-3.096,0-4.68-1.8-4.68-4.86c0-3.15,1.782-5.22,4.806-5.22c2.682,0,4.086,1.656,4.086,4.23c0,0.684-0.108,1.35-0.108,1.404z M159.03816,24.86l3.258,0c0-1.026-0.432-1.8-1.476-1.8c-1.008,0-1.638,0.738-1.782,1.8z M171.48534,28.91l1.62,0.45l0,1.44l-5.778,0l0-1.44l1.44-0.45l0-10.116l-1.44-0.36l0-1.44l4.158-0.144l0,12.06z M183.86052,26.534l-5.976,0c0.108,1.44,0.936,2.286,2.178,2.286c1.494,0,3.024-0.846,3.024-0.846l0.774,1.494s-1.8,1.512-4.104,1.512c-3.096,0-4.68-1.8-4.68-4.86c0-3.15,1.782-5.22,4.806-5.22c2.682,0,4.086,1.656,4.086,4.23c0,0.684-0.108,1.35-0.108,1.404z M177.92052,24.86l3.258,0c0-1.026-0.432-1.8-1.476-1.8c-1.008,0-1.638,0.738-1.782,1.8z"/><path fill="#010214" d=""/>
<defs>
<filter id="filter0_d" x="23.0713" y="7.5" width="180.652" height="30.793" filterUnits="userSpaceOnUse" color-interpolation-filters="sRGB">
<feFlood flood-opacity="0" result="BackgroundImageFix"/>
<feColorMatrix in="SourceAlpha" type="matrix" values="0 0 0 0 0 0 0 0 0 0 0 0 0 0 0 0 0 0 127 0"/>
<feOffset dy="4"/>
<feGaussianBlur stdDeviation="2"/>
<feColorMatrix type="matrix" values="0 0 0 0 0 0 0 0 0 0 0 0 0 0 0 0 0 0 0.25 0"/>
<feBlend mode="normal" in2="BackgroundImageFix" result="effect1_dropShadow"/>
<feBlend mode="normal" in="SourceGraphic" in2="effect1_dropShadow" result="shape"/>
</filter>
</defs>
</svg>
