<?xml version="1.0"?>
<svg version="1.1" xmlns="http://www.w3.org/2000/svg" width="400" height="200" style=""><path fill="#13103d" d="M20.04,116.8l0-2.38l2.1-0.84l0-3.612l-5.124-9.632l-1.82-0.756l0-2.38l7.924-0.14l0,2.52l-1.428,0.588l2.8,6.02l2.968-5.992l-1.54-0.616l0-2.38l7.56-0.14l0,2.52l-1.932,0.756l-5.068,9.604l0,3.64l2.1,0.84l0,2.38l-8.54,0z M46.40228,96.724c5.6,0,8.82,3.696,8.82,9.94c0,6.3-3.78,10.5-9.38,10.5s-8.68-3.5-8.68-10.08c0-6.44,3.556-10.36,9.24-10.36z M46.26228,100.224c-2.8,0-4.34,1.736-4.34,6.72c0,4.62,1.26,6.72,4.06,6.72s4.48-1.82,4.48-6.86c0-4.62-1.4-6.58-4.2-6.58z M59.68856,116.8l0-2.38l2.1-0.84l0-13.16l-2.1-0.84l0-2.38l8.68-0.14l0,2.52l-2.24,0.84l0,4.48l7.336,0l0-4.48l-2.24-0.84l0-2.38l8.68-0.14l0,2.52l-2.1,0.84l0,13.16l2.1,0.84l0,2.38l-8.68,0l0-2.38l2.24-0.84l0-5.32l-7.336,0l0,5.32l2.24,0.84l0,2.38l-8.68,0z M103.63484,114.42l0,2.38l-8.904,0l0-2.38l2.1-0.756l-0.672-2.044l-6.216,0l-0.7,2.016l2.184,0.784l0,2.38l-8.456,0l0-2.38l2.044-0.784l6.16-16.492l4.48-0.084l6.02,16.576z M95.23484,108.624l-2.1-6.636l-2.212,6.636l4.312,0z M106.70112,116.8l0-2.38l2.1-0.84l0-13.16l-2.1-0.84l0-2.38l6.72-0.14l7.56,12.936l0-9.576l-2.044-0.84l0-2.38l7.98-0.14l0,2.52l-2.1,0.84l0,16.38l-4.676,0l-7.504-12.684l0,9.464l2.184,0.84l0,2.38l-8.12,0z M130.6834,116.8l0-2.38l2.1-0.84l0-13.16l-2.1-0.84l0-2.38l6.72-0.14l7.56,12.936l0-9.576l-2.044-0.84l0-2.38l7.98-0.14l0,2.52l-2.1,0.84l0,16.38l-4.676,0l-7.504-12.684l0,9.464l2.184,0.84l0,2.38l-8.12,0z M167.04168,105.04l0,3.08l-5.656,0l0,5.32l5.012,0l0.644-2.296l2.52,0l0,5.656l-14.616,0l0-2.38l2.1-0.84l0-13.16l-2.1-0.84l0-2.38l6.44-0.14l7.84,0l0,5.404l-2.52,0l-0.7-2.044l-4.62,0l0,4.62l5.656,0z M177.63996,110.724l0.42,2.352s1.12,0.588,2.744,0.588c1.792,0,3.388-0.784,3.388-2.268c0-3.276-9.464-1.82-9.464-8.736c0-3.864,3.052-5.936,7.112-5.936c3.164,0,6.16,1.12,6.16,1.12l-0.14,5.096l-2.576,0l-0.7-2.38s-1.26-0.42-2.464-0.42c-1.988,0-2.968,0.868-2.968,1.988c0,3.248,9.436,1.96,9.436,8.54c0,4.2-3.248,6.496-7.56,6.496c-3.164,0-6.244-1.064-6.244-1.064l0-5.376l2.856,0z"/><path fill="#13103d" d="M204.35424,97.06l2.94,0c3.64,0,6.16,1.54,6.16,4.844c0,2.436-1.148,3.92-3.36,4.62c2.632,0.756,4.004,2.324,4.004,4.48c0,4.116-2.744,5.796-7.28,5.796l-8.904,0l0-2.38l2.1-0.84l0-13.16l-2.1-0.84l0-2.38z M204.35424,105.124l1.624,0c2.044,0,3.136-0.868,3.136-2.604c0-1.456-1.036-2.1-2.38-2.1l-2.38,0l0,4.704z M204.35424,113.44l2.324,0c1.96,0,2.996-0.896,2.996-2.436c0-2.044-1.176-2.94-3.696-2.94l-1.624,0l0,5.376z M230.66052,105.04l0,3.08l-5.656,0l0,5.32l5.012,0l0.644-2.296l2.52,0l0,5.656l-14.616,0l0-2.38l2.1-0.84l0-13.16l-2.1-0.84l0-2.38l6.44-0.14l7.84,0l0,5.404l-2.52,0l-0.7-2.044l-4.62,0l0,4.62l5.656,0z M237.6468,116.8l0-2.38l2.1-0.84l0-13.216l-2.1-0.84l0-2.324l8.54-0.14l0,2.464l-2.1,0.84l0,4.816l1.904,0l4.676-7.98l5.18-0.14l0,2.464l-2.66,0.784l-3.668,6.104l5.208,7.168l2.1,0.84l0,2.38l-8.54,0l0-2.38l1.68-0.84l-3.836-5.32l-2.044,0l0,5.32l2.1,0.84l0,2.38l-8.54,0z M272.12908,105.04l0,3.08l-5.656,0l0,5.32l5.012,0l0.644-2.296l2.52,0l0,5.656l-14.616,0l0-2.38l2.1-0.84l0-13.16l-2.1-0.84l0-2.38l6.44-0.14l7.84,0l0,5.404l-2.52,0l-0.7-2.044l-4.62,0l0,4.62l5.656,0z M289.69936,113.44l0.616-3.08l2.66,0l0,6.44l-14,0l0-2.38l2.1-0.84l0-13.16l-2.1-0.84l0-2.38l8.54-0.14l0,2.52l-2.1,0.84l0,13.02l4.284,0z M308.55764,105.04l0,3.08l-5.656,0l0,5.32l5.012,0l0.644-2.296l2.52,0l0,5.656l-14.616,0l0-2.38l2.1-0.84l0-13.16l-2.1-0.84l0-2.38l6.44-0.14l7.84,0l0,5.404l-2.52,0l-0.7-2.044l-4.62,0l0,4.62l5.656,0z"/></svg>
