<?xml version="1.0"?>
<svg version="1.1" xmlns="http://www.w3.org/2000/svg" width="300" height="40" style=""><path fill="#3d2a10" d="M19.32,34.4l0-2.04l1.8-0.72l0-3.096l-4.392-8.256l-1.56-0.648l0-2.04l6.792-0.12l0,2.16l-1.224,0.504l2.4,5.16l2.544-5.136l-1.32-0.528l0-2.04l6.48-0.12l0,2.16l-1.656,0.648l-4.344,8.232l0,3.12l1.8,0.72l0,2.04l-7.32,0z M41.91624,17.192c4.8,0,7.56,3.168,7.56,8.52c0,5.4-3.24,9-8.04,9s-7.44-3-7.44-8.64c0-5.52,3.048-8.88,7.92-8.88z M41.79624,20.192c-2.4,0-3.72,1.488-3.72,5.76c0,3.96,1.08,5.76,3.48,5.76s3.84-1.56,3.84-5.88c0-3.96-1.2-5.64-3.6-5.64z M53.30448,34.4l0-2.04l1.8-0.72l0-11.28l-1.8-0.72l0-2.04l7.44-0.12l0,2.16l-1.92,0.72l0,3.84l6.288,0l0-3.84l-1.92-0.72l0-2.04l7.44-0.12l0,2.16l-1.8,0.72l0,11.28l1.8,0.72l0,2.04l-7.44,0l0-2.04l1.92-0.72l0-4.56l-6.288,0l0,4.56l1.92,0.72l0,2.04l-7.44,0z M90.97272,32.36l0,2.04l-7.632,0l0-2.04l1.8-0.648l-0.576-1.752l-5.328,0l-0.6,1.728l1.872,0.672l0,2.04l-7.248,0l0-2.04l1.752-0.672l5.28-14.136l3.84-0.072l5.16,14.208z M83.77272,27.392l-1.8-5.688l-1.896,5.688l3.696,0z M93.60096,34.4l0-2.04l1.8-0.72l0-11.28l-1.8-0.72l0-2.04l5.76-0.12l6.48,11.088l0-8.208l-1.752-0.72l0-2.04l6.84-0.12l0,2.16l-1.8,0.72l0,14.04l-4.008,0l-6.432-10.872l0,8.112l1.872,0.72l0,2.04l-6.96,0z M114.1572,34.4l0-2.04l1.8-0.72l0-11.28l-1.8-0.72l0-2.04l5.76-0.12l6.48,11.088l0-8.208l-1.752-0.72l0-2.04l6.84-0.12l0,2.16l-1.8,0.72l0,14.04l-4.008,0l-6.432-10.872l0,8.112l1.872,0.72l0,2.04l-6.96,0z M145.32144,24.32l0,2.64l-4.848,0l0,4.56l4.296,0l0.552-1.968l2.16,0l0,4.848l-12.528,0l0-2.04l1.8-0.72l0-11.28l-1.8-0.72l0-2.04l5.52-0.12l6.72,0l0,4.632l-2.16,0l-0.6-1.752l-3.96,0l0,3.96l4.848,0z M154.40568,29.192l0.36,2.016s0.96,0.504,2.352,0.504c1.536,0,2.904-0.672,2.904-1.944c0-2.808-8.112-1.56-8.112-7.488c0-3.312,2.616-5.088,6.096-5.088c2.712,0,5.28,0.96,5.28,0.96l-0.12,4.368l-2.208,0l-0.6-2.04s-1.08-0.36-2.112-0.36c-1.704,0-2.544,0.744-2.544,1.704c0,2.784,8.088,1.68,8.088,7.32c0,3.6-2.784,5.568-6.48,5.568c-2.712,0-5.352-0.912-5.352-0.912l0-4.608l2.448,0z"/><path fill="#3d2a10" d="M178.01792,17.48l2.52,0c3.12,0,5.28,1.32,5.28,4.152c0,2.088-0.984,3.36-2.88,3.96c2.256,0.648,3.432,1.992,3.432,3.84c0,3.528-2.352,4.968-6.24,4.968l-7.632,0l0-2.04l1.8-0.72l0-11.28l-1.8-0.72l0-2.04z M178.01792,24.392l1.392,0c1.752,0,2.688-0.744,2.688-2.232c0-1.248-0.888-1.8-2.04-1.8l-2.04,0l0,4.032z M178.01792,31.52l1.992,0c1.68,0,2.568-0.768,2.568-2.088c0-1.752-1.008-2.52-3.168-2.52l-1.392,0l0,4.608z M200.56616,24.32l0,2.64l-4.848,0l0,4.56l4.296,0l0.552-1.968l2.16,0l0,4.848l-12.528,0l0-2.04l1.8-0.72l0-11.28l-1.8-0.72l0-2.04l5.52-0.12l6.72,0l0,4.632l-2.16,0l-0.6-1.752l-3.96,0l0,3.96l4.848,0z M206.5544,34.4l0-2.04l1.8-0.72l0-11.328l-1.8-0.72l0-1.992l7.32-0.12l0,2.112l-1.8,0.72l0,4.128l1.632,0l4.008-6.84l4.44-0.12l0,2.112l-2.28,0.672l-3.144,5.232l4.464,6.144l1.8,0.72l0,2.04l-7.32,0l0-2.04l1.44-0.72l-3.288-4.56l-1.752,0l0,4.56l1.8,0.72l0,2.04l-7.32,0z M236.11064,24.32l0,2.64l-4.848,0l0,4.56l4.296,0l0.552-1.968l2.16,0l0,4.848l-12.528,0l0-2.04l1.8-0.72l0-11.28l-1.8-0.72l0-2.04l5.52-0.12l6.72,0l0,4.632l-2.16,0l-0.6-1.752l-3.96,0l0,3.96l4.848,0z M251.17088,31.52l0.528-2.64l2.28,0l0,5.52l-12,0l0-2.04l1.8-0.72l0-11.28l-1.8-0.72l0-2.04l7.32-0.12l0,2.16l-1.8,0.72l0,11.16l3.672,0z M267.33512,24.32l0,2.64l-4.848,0l0,4.56l4.296,0l0.552-1.968l2.16,0l0,4.848l-12.528,0l0-2.04l1.8-0.72l0-11.28l-1.8-0.72l0-2.04l5.52-0.12l6.72,0l0,4.632l-2.16,0l-0.6-1.752l-3.96,0l0,3.96l4.848,0z"/></svg>
